<?xml version="1.0" standalone="no"?>
<!DOCTYPE svg PUBLIC "-//W3C//DTD SVG 20010904//EN"
 "http://www.w3.org/TR/2001/REC-SVG-20010904/DTD/svg10.dtd">
<svg version="1.0" xmlns="http://www.w3.org/2000/svg"
 width="454.000000pt" height="454.000000pt" viewBox="0 0 454.000000 454.000000"
 preserveAspectRatio="xMidYMid meet">

<g transform="translate(0.000000,454.000000) scale(0.100000,-0.100000)"
fill="#000000" stroke="none">
<path d="M680 2390 l0 -1950 120 0 120 0 0 1630 0 1630 959 0 958 0 59 -66
c99 -112 146 -190 186 -310 19 -58 23 -90 23 -204 0 -85 -5 -152 -14 -180 -76
-256 -230 -431 -456 -521 -121 -47 -274 -59 -817 -59 l-478 0 0 90 0 90 353 0
c401 0 808 15 852 31 163 60 311 207 375 374 20 51 24 79 24 190 1 83 -4 144
-13 170 -23 70 -75 174 -91 181 -21 8 -300 18 -300 10 0 -3 20 -27 46 -54 85
-89 134 -197 134 -297 0 -104 -58 -227 -135 -286 -88 -68 -196 -79 -771 -79
l-452 0 -11 63 c-6 37 -11 189 -11 360 l0 297 -120 0 -120 0 0 -1530 0 -1530
120 0 120 0 2 838 3 837 465 6 c526 7 733 16 805 34 185 47 389 184 525 350
80 99 156 262 191 415 16 69 16 304 0 367 -27 107 -33 129 -42 145 -5 10 -9
23 -9 28 0 19 -62 143 -101 201 -61 91 -133 163 -223 223 l-85 56 -975 0 -976
0 0 82 0 81 973 -6 c926 -6 975 -7 1032 -25 264 -86 429 -178 600 -333 61 -56
157 -170 197 -234 117 -187 120 -191 150 -162 7 6 38 32 68 57 93 76 93 77 60
120 -11 14 -20 29 -20 33 0 16 -100 155 -167 232 -167 193 -420 367 -678 465
-63 25 -141 46 -215 60 -82 15 -892 30 -1607 30 l-633 0 0 -1950z"/>
<path d="M1517 1914 c-3 -3 -4 -29 -1 -58 28 -293 131 -511 348 -734 208 -214
359 -294 664 -352 78 -15 324 -12 417 5 249 45 365 97 615 277 l44 32 -22 -32
c-83 -116 -386 -304 -572 -354 -120 -32 -294 -58 -393 -58 -92 0 -244 22 -352
52 -215 59 -372 147 -527 296 -58 56 -91 81 -100 76 -30 -18 -131 -121 -139
-141 -13 -34 -5 -45 79 -116 210 -176 335 -251 527 -315 304 -101 577 -117
875 -53 342 74 651 271 866 551 107 140 194 285 194 326 0 11 -28 48 -63 84
-77 82 -238 230 -249 230 -4 0 -14 -10 -21 -22 -78 -129 -115 -177 -217 -278
-141 -141 -228 -200 -375 -260 -155 -63 -404 -87 -581 -55 -267 47 -459 174
-613 405 -105 157 -136 235 -187 478 -4 21 -9 22 -108 22 -56 0 -105 -3 -109
-6z"/>
</g>
</svg>
