<?xml version="1.0" standalone="no"?>
<!DOCTYPE svg PUBLIC "-//W3C//DTD SVG 20010904//EN"
 "http://www.w3.org/TR/2001/REC-SVG-20010904/DTD/svg10.dtd">
<svg version="1.0" xmlns="http://www.w3.org/2000/svg"
 width="382.000000pt" height="382.000000pt" viewBox="0 0 382.000000 382.000000"
 preserveAspectRatio="xMidYMid meet">

<g transform="translate(0.000000,382.000000) scale(0.100000,-0.100000)"
fill="#000000" stroke="none">
<path d="M1080 1886 l0 -976 60 0 60 0 0 815 0 815 479 0 478 0 41 -44 c133
-144 131 -354 -3 -504 -23 -26 -64 -58 -90 -71 -92 -46 -133 -51 -422 -51
l-273 0 0 44 0 45 293 3 c273 3 295 4 337 24 57 27 123 93 151 153 34 69 33
180 -2 246 l-25 50 -79 3 -80 3 31 -33 c66 -69 82 -153 45 -226 -49 -95 -75
-102 -395 -102 l-264 0 -6 23 c-3 12 -6 93 -6 180 l0 157 -60 0 -60 0 0 -765
0 -765 60 0 60 0 0 419 0 419 308 4 c286 4 311 6 366 26 175 65 300 218 326
399 24 174 -58 371 -189 454 l-45 29 -488 0 -488 0 0 40 0 41 488 -3 487 -3
81 -28 c153 -51 287 -160 365 -297 19 -33 36 -59 39 -59 3 0 25 17 49 38 l45
38 -28 47 c-97 165 -270 298 -466 357 -73 22 -88 23 -627 27 l-553 3 0 -975z"/>
<path d="M1501 1591 c15 -130 74 -247 179 -351 119 -119 245 -170 420 -171
155 -1 294 46 408 139 52 42 55 43 28 12 -41 -50 -120 -108 -200 -146 -241
-116 -557 -67 -733 114 l-38 40 -43 -38 c-26 -24 -40 -43 -37 -53 7 -17 112
-103 174 -142 24 -15 73 -38 109 -51 278 -105 585 -53 801 137 82 73 191 227
191 272 0 7 -36 45 -79 85 l-79 72 -30 -53 c-38 -67 -154 -177 -225 -211 -159
-78 -359 -75 -499 7 -108 63 -206 207 -231 337 l-12 60 -55 0 -56 0 7 -59z"/>
</g>
</svg>
