<?xml version="1.0" encoding="UTF-8"?>
<svg width="1200pt" height="1200pt" version="1.1" viewBox="0 0 1200 1200" xmlns="http://www.w3.org/2000/svg">
 <g>
  <path d="m600 224.29c-99.656 0-195.19 39.609-265.64 110.06s-110.06 165.98-110.06 265.64 39.609 195.19 110.06 265.64 165.98 110.06 265.64 110.06 195.19-39.609 265.64-110.06 110.06-165.98 110.06-265.64c-0.14062-99.609-39.75-195.1-110.16-265.55-70.453-70.406-165.94-110.02-265.55-110.16zm0 726.71v0.046875c-93.094 0-182.39-36.984-248.21-102.84-65.859-65.812-102.84-155.11-102.84-248.21 0-93.098 36.984-182.39 102.84-248.21 65.812-65.859 155.11-102.84 248.21-102.84 93.098 0 182.39 36.984 248.21 102.84 65.859 65.812 102.84 155.11 102.84 248.21-0.14062 93.047-37.172 182.29-102.98 248.06-65.766 65.812-155.02 102.84-248.06 102.98z"/>
  <path d="m600 951.05c-125.39 0-241.31-66.938-303.98-175.55-62.719-108.61-62.719-242.39 0-351 62.672-108.61 178.6-175.55 303.98-175.55z"/>
 </g>
</svg>
